<svg id="レイヤー_2" data-name="レイヤー 2" xmlns="http://www.w3.org/2000/svg" viewBox="0 0 600 490">
  <defs>
    <style>
      .cls-1, .cls-2, .cls-7 {
        fill: #fff;
      }

      .cls-1, .cls-2, .cls-3, .cls-4, .cls-5, .cls-6, .cls-7, .cls-8 {
        stroke: #000;
      }

      .cls-1, .cls-10, .cls-8 {
        stroke-miterlimit: 10;
      }

      .cls-1, .cls-10 {
        stroke-width: 3.83px;
      }

      .cls-10, .cls-2, .cls-4 {
        stroke-linecap: round;
      }

      .cls-2, .cls-3, .cls-4, .cls-5, .cls-6, .cls-7 {
        stroke-linejoin: round;
      }

      .cls-2, .cls-8 {
        stroke-width: 3.51px;
      }

      .cls-3, .cls-4, .cls-9 {
        fill: #ffea55;
      }

      .cls-3, .cls-4, .cls-5, .cls-6, .cls-7 {
        stroke-width: 3.52px;
      }

      .cls-5 {
        fill: #e4e6e6;
      }

      .cls-6 {
        fill: #cbcbcb;
      }

      .cls-8 {
        fill: #00bfff;
      }

      .cls-10 {
        fill: none;
        stroke: #7c7c7c;
      }
    </style>
  </defs>
  <title>アートボード 2</title>
  <rect x="200.79" y="71.15" width="19.49" height="19.49" transform="translate(4.46 172.56) rotate(-45)"/>
  <rect class="cls-1" x="60.84" y="35.72" width="150.58" height="90.35" rx="8.82"/>
  <polygon class="cls-2" points="345.18 90.19 366.43 99.05 375.29 123.85 369.98 138.03 354.03 141.57 352.26 157.51 295.57 157.51 295.57 90.19 345.18 90.19"/>
  <polygon class="cls-2" points="253.05 90.19 231.79 99.05 222.94 123.85 228.25 138.03 244.2 141.57 245.97 157.51 302.66 157.51 302.66 90.19 253.05 90.19"/>
  <polygon class="cls-2" points="258.37 31.73 245.97 44.13 244.2 61.85 240.65 72.48 231.79 81.34 240.65 86.65 251.28 88.42 265.45 93.74 270.94 26.14 258.37 31.73"/>
  <path class="cls-3" d="M261.91,64.85c0,8.13-3.18,14.71-7.11,14.71s-7.67-6.83-10-14.71C242,55,242,47.68,250.53,47.68,256.89,47.68,261.91,56.72,261.91,64.85Z"/>
  <polygon class="cls-2" points="339.86 31.73 352.26 44.13 354.03 61.85 357.58 72.48 366.43 81.34 357.58 86.65 346.95 88.42 332.77 93.74 327.29 26.14 339.86 31.73"/>
  <path class="cls-3" d="M336.32,64.85c0,8.13,3.18,14.71,7.11,14.71s7.67-6.83,10-14.71c2.85-9.81,2.85-17.17-5.69-17.17C341.34,47.68,336.32,56.72,336.32,64.85Z"/>
  <path class="cls-3" d="M345.17,51.22c0,21.52-12.4,51.37-46.06,51.37-31.88,0-46.06-29.85-46.06-51.37s20.63-39,46.06-39S345.17,29.69,345.17,51.22Z"/>
  <polygon class="cls-2" points="295.57 44.13 265.45 31.73 258.37 44.13 293.8 51.22 295.57 44.13"/>
  <polygon class="cls-2" points="302.66 44.13 332.77 31.73 339.86 44.13 304.43 51.22 302.66 44.13"/>
  <g>
    <circle class="cls-2" cx="280.51" cy="59.19" r="15.06"/>
    <circle class="cls-2" cx="317.72" cy="59.19" r="15.06"/>
  </g>
  <path class="cls-4" d="M290.26,74.25a8.86,8.86,0,1,1,17.71,0"/>
  <polygon class="cls-2" points="299.11 81.34 288.49 79.56 277.86 84.88 267.23 81.34 260.07 70.71 253.27 54.97 253.93 76.91 259.23 99.94 264.5 107.02 276.74 115.88 290.78 115.88 308.33 117.65 329.38 112.34 336.37 107.02 341.63 91.08 345.18 75.14 345.18 59.19 336.32 76.02 322.14 83.11 311.51 79.56 299.11 81.34"/>
  <path class="cls-2" d="M299.11,86.65q-4.16,7.09-12.4,4.73"/>
  <path class="cls-2" d="M299.11,86.65q4.17,7.09,12.41,4.73"/>
  <rect class="cls-3" x="258.97" y="93.03" width="10.86" height="19.13" rx="5.43"/>
  <rect class="cls-3" x="238.88" y="91.97" width="23.03" height="30.12" rx="6.03"/>
  <circle class="cls-5" cx="252.17" cy="83.99" r="7.97"/>
  <rect class="cls-3" x="328.39" y="93.03" width="10.86" height="19.13" rx="5.43" transform="translate(667.65 205.19) rotate(-180)"/>
  <rect class="cls-3" x="336.32" y="91.97" width="23.03" height="30.12" rx="6.03" transform="translate(695.66 214.05) rotate(-180)"/>
  <circle class="cls-5" cx="346.06" cy="83.99" r="7.97"/>
  <polygon class="cls-5" points="367.8 165.1 232.2 165.1 246.4 114.73 353.6 114.73 367.8 165.1"/>
  <rect class="cls-5" x="217.99" y="161.22" width="164.02" height="12.91"/>
  <circle class="cls-3" cx="93.62" cy="312.18" r="4.3"/>
  <circle class="cls-3" cx="199.9" cy="312.18" r="4.3"/>
  <path class="cls-6" d="M82.79,329.82v12.29c0,3,28.64,5.5,64,5.5s64-2.46,64-5.5V329.82"/>
  <ellipse class="cls-7" cx="146.76" cy="330.24" rx="63.97" ry="5.51"/>
  <path class="cls-6" d="M94.94,295.6V325c0,2.46,23.2,4.46,51.82,4.46s51.82-2,51.82-4.46V295.6"/>
  <ellipse class="cls-7" cx="146.76" cy="295.94" rx="51.82" ry="4.46"/>
  <path class="cls-6" d="M119.22,264.52v28c0,1.31,12.33,2.37,27.54,2.37s27.54-1.06,27.54-2.37v-28"/>
  <circle class="cls-3" cx="127.39" cy="313.61" r="4.3"/>
  <circle class="cls-3" cx="166.13" cy="313.61" r="4.3"/>
  <ellipse class="cls-7" cx="146.76" cy="466.01" rx="136.39" ry="11.74"/>
  <circle class="cls-8" cx="300" cy="129.91" r="24.61"/>
  <g>
    <path d="M91.58,87.23a.53.53,0,0,1-.55.22,31,31,0,0,1-6.33,5,13,13,0,0,0-1.41-1.2,21.5,21.5,0,0,0,6.11-4.89Zm-4.94-3.61h20.73v1.62H96.29v7.63H94.43V85.24H86.64V86H84.86V70.55l2.31.16c0,.18-.16.31-.53.34Zm17.56-14.4V81.49H89.56V69.22Zm-1.75,3.66V70.57H91.26v2.31Zm0,3.62V74.19H91.26V76.5Zm0,3.64V77.8H91.26v2.34Zm3.35,12.38a58.06,58.06,0,0,0-6.35-5.21l1.46-1a54.48,54.48,0,0,1,6.43,5Z"/>
    <path d="M130.35,77.61a.44.44,0,0,1-.21,0,1,1,0,0,1-.56-.16c-7.89,2.31-15,5.79-15,9.35,0,2.55,2.81,3.43,7.12,3.43a64.14,64.14,0,0,0,9.41-.61l.16,1.94a85.69,85.69,0,0,1-9.52.48c-5.26,0-9.08-1.22-9.11-5.13,0-2.84,2.82-5.34,7-7.49-.91-1.62-1.23-4.71-1.23-10.71l2.93.24c0,.34-.29.56-.83.64,0,4.65.14,7.54.88,9a75.84,75.84,0,0,1,8.29-3.19Z"/>
    <path d="M160.62,72v1.76H149.49v0h.39c0,.19-.18.32-.53.38v3.42h8.72v9.6c0,2.1-.85,2.25-5.85,2.25a8.05,8.05,0,0,0-.63-1.78c1.91.06,3.53.06,4,.06s.62-.16.62-.53V79.29h-6.89V93h-1.86V79.29H141v10.2h-1.81v-12h8.26V73.71H136.44V72h11.05v-3.9l2.42.13c0,.21-.18.35-.56.4V72Z"/>
    <path d="M186.16,79.55a.4.4,0,0,1-.16.06.66.66,0,0,1-.4-.16c-2,.66-5,1.75-7.18,2.71.06.61.08,1.3.08,2.07s0,1.81-.08,2.84l-1.94.11c.09-1,.14-2.18.14-3.22,0-.39,0-.77,0-1.06-3,1.46-5.45,3.24-5.45,4.84S173,90,176.64,90a60.3,60.3,0,0,0,6.67-.26l0,1.78c-1.57.16-4,.21-6.7.21-5.1,0-7.36-1.22-7.36-3.93,0-2.34,3.08-4.6,7.07-6.59-.16-1.68-.9-2.5-2-2.5-1.95,0-4,1.09-6.36,3.75-.74.82-1.78,1.86-2.92,2.89l-1.3-1.3c2.66-2.34,5.15-4.57,6.7-9.8l-1.49,0h-4.44V72.57c1.62,0,3.51,0,4.6,0l1.8,0a32.13,32.13,0,0,0,.72-3.8l2.61.31c-.06.27-.27.43-.67.48-.19,1.07-.42,2-.66,3A36.11,36.11,0,0,0,182.12,71l.32,1.78a40,40,0,0,1-10,1.49,19,19,0,0,1-1.91,4.49h0A7,7,0,0,1,174.86,77c1.81,0,2.95,1.3,3.3,3.46,2.23-1,5.05-2.1,7.17-2.93Z"/>
  </g>
  <rect x="379.72" y="70.71" width="19.49" height="19.49" transform="translate(607.97 412.73) rotate(-135)"/>
  <rect class="cls-1" x="388.58" y="35.28" width="150.58" height="90.35" rx="8.82" transform="translate(927.74 160.9) rotate(-180)"/>
  <g>
    <path d="M422.5,69.09c-.1.19-.29.27-.64.24a26.38,26.38,0,0,1-8.31,10.52,11.79,11.79,0,0,0-1.41-1.27,23.87,23.87,0,0,0,8.08-10.26ZM431.8,78l.43,0,1,.11c0,.18,0,.42,0,.64-.43,8.58-.82,11.66-1.75,12.67-.75.85-1.54.93-3.17.93-.9,0-2,0-3.18-.11a4.21,4.21,0,0,0-.59-1.78c1.81.16,3.53.19,4.17.19s.88,0,1.15-.35c.68-.69,1.11-3.45,1.46-10.52H424c-.72,5.1-2.21,10.26-9.33,12.81A6.5,6.5,0,0,0,413.52,91c6.43-2.15,7.94-6.61,8.58-11.29h-5.71V78Zm-2.34-9.7a27.93,27.93,0,0,0,8.19,9.8,8.38,8.38,0,0,0-1.49,1.6A35.16,35.16,0,0,1,427.76,69Z"/>
    <path d="M450.32,74.59V90.43c0,2-1.11,2-4.49,2a6.2,6.2,0,0,0-.58-1.54c.85,0,1.62.05,2.18.05,1.22,0,1.35,0,1.35-.53V85.28h-6.45a16.36,16.36,0,0,1-2.08,7.22,6.83,6.83,0,0,0-1.3-.82c1.83-2.87,2-6.88,2-9.91v-5.4c-.27.35-.53.7-.8,1a9.48,9.48,0,0,0-1.27-1,22,22,0,0,0,4.22-8.63l2.05.56c-.05.18-.21.26-.53.26-.16.53-.32,1-.51,1.57h3.4l.27-.08,1.22.8c0,.1-.21.16-.34.21a36.17,36.17,0,0,1-1.76,3.53Zm-5.05,0a19.36,19.36,0,0,0,1.41-3h-3.11a28.82,28.82,0,0,1-1.46,3Zm-2.79,6v1.2c0,.64,0,1.35-.05,2.07h2.47V80.57Zm0-4.54v3.13h2.42V76Zm3.78,0v3.13h2.52V76Zm0,7.81h2.52V80.57h-2.52Zm16.9-14.67a3.55,3.55,0,0,1-.06.56c-.23,4.52-.45,6.19-1,6.83-.35.43-.77.64-2,.64-.62,0-1.44,0-2.26-.06a4,4,0,0,0-.43-1.51,22.17,22.17,0,0,0,2.53.13c.39,0,.63,0,.79-.24.32-.37.53-1.64.72-4.86h-4.57c-.56,3-1.73,5.82-5.26,7.44a4.88,4.88,0,0,0-1-1.25c3-1.25,4.12-3.56,4.63-6.19h-3.78V69.12h10.47l.35,0Zm.66,16.72v1.59H458.4v5h-1.73v-5H451V85.89h5.63V82.41h-3.05A10.73,10.73,0,0,1,452.26,85a10.48,10.48,0,0,0-1.22-.85,15.33,15.33,0,0,0,2.21-6.06l2,.48c0,.16-.21.26-.5.26-.16.67-.32,1.36-.53,2h2.49V77.6l2.24.13c0,.19-.16.32-.51.37v2.74h4.44v1.57H458.4v3.48Z"/>
    <path d="M474.37,69c-.05.32-.29.5-.82.58-.21,3.09-.48,10.13-.48,14.06s2,5.87,5.31,5.87,6.54-1.62,9.57-5a10.45,10.45,0,0,0,1.2,1.57c-3.11,3.54-6.89,5.4-10.79,5.4-4.84,0-7.31-2.79-7.31-7.81,0-3.35.24-11.59.43-14.86Zm7.2,2.79a21.59,21.59,0,0,1,3.62,3.67l-1,.82a19.91,19.91,0,0,0-3.56-3.67Zm3.24-2.42A20.53,20.53,0,0,1,488.46,73l-1,.85a18.59,18.59,0,0,0-3.54-3.64Z"/>
    <path d="M495,81.08c1.3-.4,3.48-1.2,4.94-1.76-.64-2.15-1.19-4.14-1.57-5.34l2.29-.42c0,.26-.11.42-.48.58.48,1.65.83,3,1.28,4.68A43,43,0,0,1,507.59,77a21.49,21.49,0,0,0-3.77-3.19l1-1a17.71,17.71,0,0,1,4.33,3.59l-.69.53a5.31,5.31,0,0,1,.69,0c2.25.06,4.59,1.28,4.59,4.25s-2.26,4.47-4.73,4.47A7,7,0,0,1,504.56,84a9.63,9.63,0,0,0,.56-1.28,6.39,6.39,0,0,0,3.77,1.38c1.83,0,3.22-.85,3.22-2.92A2.85,2.85,0,0,0,509,78.39c-1.81,0-4.38.88-7.1,1.84,1,3.37,2.4,8.1,3.25,11.26l-1.7.38c-.64-3.09-2.13-8-3.06-11.09-1.27.48-3.16,1.17-4.28,1.63a.61.61,0,0,1-.37.5Z"/>
  </g>
  <g>
    <path class="cls-9" d="M297.89,141a1.43,1.43,0,0,1-1.43,1.43h-3A1.43,1.43,0,0,1,292,141v-.66a1.43,1.43,0,0,1,1.43-1.43h3a1.43,1.43,0,0,1,1.43,1.43Z"/>
    <path class="cls-9" d="M284.82,135.43h-.25a1.43,1.43,0,0,0-1.43,1.43v2c0,.79.37,1.43,1,1.43h.16c.68,0,.52.64.52,1.43v.92a1.43,1.43,0,0,0,1.43,1.43h2.18a1.43,1.43,0,0,0,1.43-1.43v-5.75a1.43,1.43,0,0,0-1.43-1.43Z"/>
    <path class="cls-9" d="M302.55,123.42a1.43,1.43,0,0,0-1.4,1.13l-.79,3.67a1.44,1.44,0,0,1-1.4,1.13H290a1.43,1.43,0,0,0-1.42,1.42v1.08a1.43,1.43,0,0,0,1.42,1.43h.3a1.42,1.42,0,0,1,1.42,1.43v.71a1.43,1.43,0,0,0,1.43,1.43h11.07a1.43,1.43,0,0,0,1.39-1.13l2.31-10.57a1.42,1.42,0,0,0-1.39-1.73Z"/>
    <path class="cls-9" d="M311.35,120.32a1.44,1.44,0,0,1-1.41,1.16h-6.2a1.43,1.43,0,0,1-1.4-1.69l.89-4.7a1.43,1.43,0,0,1,1.41-1.16h6.2a1.41,1.41,0,0,1,1.4,1.69Z"/>
  </g>
  <path d="M423.23,263.32l1.45.8-2.43,3.27v.05l3.9-.45v1.62l-3.88-.45v.07l2.43,3.16-1.49.87-1.62-3.63h0l-1.73,3.65-1.33-.87,2.41-3.2v-.07l-3.81.47V267l3.76.42,0,0-2.39-3.18,1.45-.85,1.66,3.56h.05Z"/>
  <path d="M423.23,263.32l1.45.8-2.43,3.27v.05l3.9-.45v1.62l-3.88-.45v.07l2.43,3.16-1.49.87-1.62-3.63h0l-1.73,3.65-1.33-.87,2.41-3.2v-.07l-3.81.47V267l3.76.42,0,0-2.39-3.18,1.45-.85,1.66,3.56h.05Z"/>
  <path d="M423.23,263.32l1.45.8-2.43,3.27v.05l3.9-.45v1.62l-3.88-.45v.07l2.43,3.16-1.49.87-1.62-3.63h0l-1.73,3.65-1.33-.87,2.41-3.2v-.07l-3.81.47V267l3.76.42,0,0-2.39-3.18,1.45-.85,1.66,3.56h.05Z"/>
  <path d="M423.23,263.32l1.45.8-2.43,3.27v.05l3.9-.45v1.62l-3.88-.45v.07l2.43,3.16-1.49.87-1.62-3.63h0l-1.73,3.65-1.33-.87,2.41-3.2v-.07l-3.81.47V267l3.76.42,0,0-2.39-3.18,1.45-.85,1.66,3.56h.05Z"/>
  <path class="cls-3" d="M38.42,442.34v20.8c0,5.15,48.51,9.33,108.34,9.33s108.34-4.18,108.34-9.33v-20.8"/>
  <ellipse class="cls-7" cx="146.76" cy="443.05" rx="108.34" ry="9.33"/>
  <path class="cls-6" d="M29.81,463.86c-2.79,1.92-5.62,2.8-8.61,0v-3.68a12.12,12.12,0,0,1,12.11-12.1h5.11v8.61H33.31a3.5,3.5,0,0,0-3.5,3.49Z"/>
  <path class="cls-6" d="M263.71,463.86c2.79,1.92,5.62,2.8,8.61,0v-3.68a12.12,12.12,0,0,0-12.11-12.1H255.1v8.61h5.11a3.5,3.5,0,0,1,3.5,3.49Z"/>
  <circle class="cls-3" cx="58.51" cy="458.12" r="4.3"/>
  <circle class="cls-3" cx="90.08" cy="460.99" r="4.3"/>
  <circle class="cls-3" cx="127.39" cy="462.43" r="4.3"/>
  <circle class="cls-3" cx="235.01" cy="458.12" r="4.3"/>
  <circle class="cls-3" cx="203.44" cy="460.99" r="4.3"/>
  <circle class="cls-3" cx="166.13" cy="462.43" r="4.3"/>
  <circle class="cls-3" cx="400.1" cy="312.18" r="4.3"/>
  <circle class="cls-3" cx="506.38" cy="312.18" r="4.3"/>
  <path class="cls-6" d="M389.27,329.82v12.29c0,3,28.64,5.5,64,5.5s64-2.46,64-5.5V329.82"/>
  <ellipse class="cls-7" cx="453.24" cy="330.24" rx="63.97" ry="5.51"/>
  <path class="cls-6" d="M401.42,295.6V325c0,2.46,23.2,4.46,51.82,4.46s51.82-2,51.82-4.46V295.6"/>
  <ellipse class="cls-7" cx="453.24" cy="295.94" rx="51.82" ry="4.46"/>
  <path class="cls-6" d="M425.7,264.52v28c0,1.31,12.33,2.37,27.54,2.37s27.54-1.06,27.54-2.37v-28"/>
  <circle class="cls-3" cx="433.87" cy="313.61" r="4.3"/>
  <circle class="cls-3" cx="472.61" cy="313.61" r="4.3"/>
  <ellipse class="cls-7" cx="453.24" cy="466.01" rx="136.39" ry="11.74"/>
  <path class="cls-3" d="M344.9,442.34v20.8c0,5.15,48.51,9.33,108.34,9.33s108.34-4.18,108.34-9.33v-20.8"/>
  <ellipse class="cls-7" cx="453.24" cy="443.05" rx="108.34" ry="9.33"/>
  <path class="cls-6" d="M336.29,463.86c-2.79,1.92-5.62,2.8-8.61,0v-3.68a12.12,12.12,0,0,1,12.11-12.1h5.11v8.61h-5.11a3.5,3.5,0,0,0-3.5,3.49Z"/>
  <path class="cls-6" d="M570.19,463.86c2.79,1.92,5.62,2.8,8.61,0v-3.68a12.12,12.12,0,0,0-12.11-12.1h-5.11v8.61h5.11a3.5,3.5,0,0,1,3.5,3.49Z"/>
  <circle class="cls-3" cx="364.99" cy="458.12" r="4.3"/>
  <circle class="cls-3" cx="396.56" cy="460.99" r="4.3"/>
  <circle class="cls-3" cx="433.87" cy="462.43" r="4.3"/>
  <circle class="cls-3" cx="541.49" cy="458.12" r="4.3"/>
  <circle class="cls-3" cx="509.92" cy="460.99" r="4.3"/>
  <circle class="cls-3" cx="472.61" cy="462.43" r="4.3"/>
  <rect class="cls-5" x="60.84" y="171.69" width="478.32" height="106.29" rx="6.02"/>
  <line class="cls-10" x1="252.17" y1="124.74" x2="266.34" y2="124.74"/>
  <line class="cls-10" x1="248.62" y1="135.37" x2="266.34" y2="135.37"/>
  <line class="cls-10" x1="245.08" y1="146" x2="266.34" y2="146"/>
  <line class="cls-10" x1="347.83" y1="124.74" x2="333.66" y2="124.74"/>
  <line class="cls-10" x1="351.38" y1="135.37" x2="333.66" y2="135.37"/>
  <line class="cls-10" x1="354.92" y1="146" x2="333.66" y2="146"/>
</svg>
